<?xml version="1.0" encoding="utf-8"?>
<!-- Generator: Adobe Illustrator 25.1.0, SVG Export Plug-In . SVG Version: 6.00 Build 0)  -->
<svg version="1.1" id="Layer_1" xmlns="http://www.w3.org/2000/svg" xmlns:xlink="http://www.w3.org/1999/xlink" x="0px" y="0px"
	 viewBox="0 0 106.6 96.3" style="enable-background:new 0 0 106.6 96.3;" xml:space="preserve">
<style type="text/css">
	.st0{fill-rule:evenodd;clip-rule:evenodd;fill:#C13478;}
</style>
<path class="st0" d="M106.5,30.8l-0.1,0.6l-0.1,0.5l-0.1,0.6l-0.2,0.6l-0.2,0.6l-0.5,1.2L83.9,72l-0.2,0.2l-0.1,0.2l-0.3,0.4
	l-0.3,0.4l-0.3,0.4L82.2,74L82,74.2l-0.2,0.2l-0.4,0.3l-0.4,0.3l-1,0.5L79,76l-0.9,0.2l-0.4,0.1l-0.4,0H58.6l-0.9,0L57,76.2
	l-0.3-0.1L56.4,76l-0.3-0.1l-0.2-0.1l-0.2-0.2l-0.2-0.1l-0.2-0.2l-0.1-0.2L55,74.6l0-0.4l0-0.5l0.2-0.4l5.9-9.8l16.7-29.4l0.4-1
	l0.2-0.5l0.1-0.2l0.1-0.2l0-0.3l0.1-0.2l0.1-0.5l0.1-1l0-0.3v-0.2l0-0.4L78.8,29l0-0.2L68.3,11.1L68,10.5l-0.1-0.6l0-0.6l0.2-0.4
	l0.2-0.4l0.4-0.3l0.4-0.2l0.6-0.2l0.7-0.1l0.8,0h18.6l1,0l0.4,0l0.5,0.1l0.4,0.1l0.4,0.1L93,8.1l0.4,0.2l0.3,0.2l0.3,0.2l0.7,0.5
	L95,9.5l0.3,0.3l0.5,0.7l10.1,17.2l0.2,0.6l0.2,0.6l0.1,0.6l0.1,0.7L106.5,30.8z M72.4,29l0.3,0.9l0.2,0.9l0.1,1l0,0.8l-0.1,0.8
	l-0.2,0.8L72.4,35l-0.3,0.8l-0.3,0.8l-0.4,0.8l-0.4,0.8l-30.2,52l-0.4,0.6L40,91.4L39.5,92L39,92.6h-0.1l0,0l-0.1,0.1l-0.1,0.1
	l-0.3,0.3h-0.1l0,0l-0.1,0.1l-0.1,0.1l-0.3,0.3l-0.6,0.4l-0.6,0.5l-0.7,0.4l-0.7,0.3l-0.7,0.3l-0.6,0.2L33.2,96l-0.6,0.1L32,96.2
	l-0.6,0H5.1l-0.7,0l-0.6,0l-0.5-0.1L2.8,96l-0.5-0.1l-0.4-0.1l-0.4-0.2l-0.3-0.1l-0.3-0.2L0.7,95l-0.2-0.3l-0.1-0.2l-0.2-0.3
	l-0.1-0.3L0,93.6v-0.3v-0.4l0.1-0.3L0.3,92l8.3-13.7l23.6-41.2l0.3-0.7l0.1-0.3l0.1-0.2l0.1-0.1l0.2-0.7l0.1-0.3l0.1-0.3l0.3-1.4
	l0.1-0.7l0-0.7l0-0.4V31l0-0.5l-0.1-0.2l0-0.2l-0.1-0.2L18.8,4.9l-0.3-0.5L18.3,4l-0.1-0.4l0-0.4V2.8l0.1-0.3l0.2-0.7l0.1-0.3
	l0.2-0.2L19,1l0.3-0.2L20,0.4l0.8-0.2l0.4-0.1l0.5,0l1.1,0h26.3l1.4,0l0.7,0.1L52,0.2l1.2,0.3l0.6,0.2L54.3,1l0.5,0.2l0.5,0.3
	l0.4,0.3l0.4,0.4l0.4,0.4L57,3.2l0.3,0.5l0.4,0.6l14.3,24L72.4,29z"/>
</svg>
