<?xml version="1.0" encoding="utf-8"?>
<!-- Generator: Adobe Illustrator 25.2.0, SVG Export Plug-In . SVG Version: 6.00 Build 0)  -->
<svg version="1.1" id="Layer_1" xmlns="http://www.w3.org/2000/svg" xmlns:xlink="http://www.w3.org/1999/xlink" x="0px" y="0px"
	 viewBox="0 0 94.8 37.5" style="enable-background:new 0 0 94.8 37.5;" xml:space="preserve">
<g>
	<path id="_x37_" d="M76.2,13.5c-1.8,0-2.1,2.2-2.6,1.8L73.2,15c-0.1-0.1-0.1-0.2-0.1-0.4l0-4.5c0-0.5,0.2-0.6,0.7-0.6h11.1v1.8
		c-1.3,3-6.3,13.1-7.9,16.6h-4.6c2.6-4,7.2-12,8.4-14.4L76.2,13.5L76.2,13.5z"/>
	<path id="_x31_" d="M66.1,24.5c0,0.8,0.4,1.2,0.7,1.4c1,0.7,3.2,0.3,2.8,1l-0.4,0.7C69,28,68.6,27.9,68,27.9h-9.2
		c-0.7,0-1.5,0.1-1.2-0.5l0.3-0.7c0.2-0.4,1.8-0.3,2.3-0.7c0.3-0.2,0.9-0.6,0.9-1.6v-11c0-1.4-1.4-1-2.8-0.6l-0.6,0.2
		c-0.2,0.1-0.3,0-0.4-0.2L57.2,12c-0.1-0.2-0.1-0.5,0.2-0.6l8.8-2.2V24.5z"/>
	<path id="Dash" d="M49.2,19.9v-2.4h6.5v2.4H49.2z"/>
	<path id="C" d="M47.6,26.5c-0.2,0.3-0.3,0.7-0.5,0.8c-0.6,0.5-2.3,0.9-4.6,0.9c-6.5,0-10.6-3.9-10.6-9.7c0-5.2,4.3-9.4,10.4-9.4
		c2.7,0,5.3,0.9,6.2,1.5c0.1,0.1,0.1,0.2,0.1,0.4v2c0,0.1-0.1,0.3-0.2,0.4l-1.1,0.6c-0.4,0.3-1.9-2.9-5.1-2.9
		c-3.2,0-4.6,2.9-4.6,7.2c0,5.3,2.2,7.5,5.7,7.5c1.1,0,3.2-0.6,4.3-2.2c0.3-0.4,1,0.1,0.9,0.3L47.6,26.5z"/>
	<path id="N" d="M16.8,27.7c-0.1,0.1-0.2,0.2-0.4,0.2h-5.2c-0.2,0-0.5-0.1-0.3-0.5l0.2-0.5c0.1-0.3,0.3-0.4,0.5-0.4
		c0.7-0.1,1.3-0.6,1.3-1.7v-12c-0.5-0.6-1.5-1.3-2.4-1.7c-0.5-0.2-0.6-0.4-0.4-0.7l0.2-0.6c0.1-0.1,0.2-0.2,0.4-0.2h6.6
		c0.7,0.1,1,0.5,1.5,1.1l8,10.6h0.1v-8.5c0-1.3-0.4-1.5-1.7-1.8c-0.3-0.1-0.4-0.3-0.3-0.6L25,9.7c0.1-0.1,0.2-0.2,0.4-0.2h5.2
		c0.2,0,0.5,0.1,0.3,0.5l-0.2,0.5c-0.1,0.3-0.3,0.4-0.5,0.4c-0.7,0.1-1.3,0.6-1.3,1.7v14.4c0,0.5-0.2,0.9-0.7,0.9h-3.1
		c-0.1,0-0.3-0.2-1.1-1.2l-9-12.2H15v10.2c0,1.3,0.4,1.5,1.7,1.8c0.3,0.1,0.4,0.3,0.3,0.6L16.8,27.7z"/>
</g>
<path id="Border" d="M0,0.1v37.4h94.8V0.1H0z M92.6,35.6H1.9V2h90.7V35.6z"/>
</svg>
