<?xml version="1.0" encoding="utf-8"?>
<!-- Generator: Adobe Illustrator 25.2.0, SVG Export Plug-In . SVG Version: 6.00 Build 0)  -->
<svg version="1.1" id="VARG" xmlns="http://www.w3.org/2000/svg" xmlns:xlink="http://www.w3.org/1999/xlink" x="0px" y="0px"
	 viewBox="0 0 65 54.7" style="enable-background:new 0 0 65 54.7;" xml:space="preserve">
<path id="Border" d="M0,0v54.7h65V0H0z M62.2,51.8H2.9v-49h59.3V51.8z"/>
<path id="R" d="M55.2,40.8c-1.3-0.1-3.2-1.7-4.3-3.4l-6.7-8.2c6.5-2.5,6.4-5.1,6.5-11c-0.1-6.1-3.1-9.1-7-9.1H13
	c-3.5,0.1-4.2,4.3-0.2,4.8c4,0.5,5,2.9,5,5.3v18c-0.1,2.4-1,3.2-4.1,3.6c-3.2,0.4-2.5,4.6-0.2,4.6h19.9c2.3,0.1,2.9-4.2-0.2-4.6
	c-3.1-0.4-4-1.2-4.1-3.6v-6.5h2.9l10.3,13c0.6,1,1.7,1.8,3.6,1.7H55C57.6,45.4,57.4,40.9,55.2,40.8z M35.5,24.7H29V13.9h6.2
	c3.9-0.1,4.3,3.6,4.3,5.3C39.6,20.8,38.7,24.7,35.5,24.7z"/>
</svg>
