<?xml version="1.0" encoding="utf-8"?>
<!-- Generator: Adobe Illustrator 25.2.0, SVG Export Plug-In . SVG Version: 6.00 Build 0)  -->
<svg version="1.1" id="VARG" xmlns="http://www.w3.org/2000/svg" xmlns:xlink="http://www.w3.org/1999/xlink" x="0px" y="0px"
	 viewBox="0 0 94.8 37.4" style="enable-background:new 0 0 94.8 37.4;" xml:space="preserve">
<path id="Border" d="M0,0v37.4h94.8V0H0z M92.6,35.5H1.9V1.9h90.7V35.5z"/>
<path id="_x33_" d="M79.9,18.7h2.2c1.1-0.1,3,0.9,3.1,2.6c0,1.9-1.6,4.1-4.1,4.1c-2.5,0.2-2.8-0.6-3.1-1c-0.3-0.4-0.3-0.7-1.2-0.7
	h-0.5c-0.4,0-0.8,0.1-0.7,0.7v2.9c1.3,0.8,3.8,1.2,5.5,1.2c6-0.4,9-4.2,8.9-6.7c0.1-2.6-2-4.2-3.6-4.8c2.1-1.1,2.8-3,2.9-4.3
	C89.2,10,85,8.8,82.1,8.9c-2.9-0.1-4.7,1-5.3,1.2c-0.3,0.3-0.5,0.5-0.5,1v1.4c-0.1,0.4,0,0.7,0.5,0.7h1c0.1,0,0.5-0.1,0.7-0.2
	c0.4-0.8,1.1-1.8,2.9-1.9c1.8,0.1,2.8,1.2,2.9,2.4c0.1,0.9-0.3,2.7-2.4,2.6h-1.9c-0.2,0-0.4,0.2-0.5,0.5v1.7
	C79.5,18.5,79.8,18.7,79.9,18.7z"/>
<path id="_x21_" d="M71,23.8c0.1,1.7,1,2.5,2.6,2.6c0.2,0.1,0.5,0.2,0.5,0.7v0.5c0,0.2-0.2,0.4-0.5,0.2h-9.6
	c-0.4,0.1-0.6-0.1-0.5-0.2v-0.5c-0.1-0.5,0.2-0.6,0.5-0.7c1.5-0.2,2.4-1,2.4-2.6V13.2c-0.9,0.2-2.4,0.5-3.4,0.7
	c-0.2,0-0.4,0-0.5-0.2v-1.4c0.1-0.1,0.3-0.2,0.5-0.2c1.4-0.3,2.9-1.2,4.6-2.6c0.1-0.1,0.4-0.2,0.7-0.2h2.2c0.4,0,0.6,0.2,0.5,0.5
	C71,9.6,71,23.8,71,23.8z"/>
<rect id="Dash" x="53.3" y="16.6" width="7" height="2.4"/>
<path id="G" d="M43,23.3c-0.1,0.8,0.2,3.2-4.1,3.4c-4.6-0.1-4.3-3.4-4.3-4.6c-0.1-1.1-0.1-3.6,0-6.5c0.1-2.9,0.2-5,4.8-5
	c4.6,0.1,4.2,3.4,4.3,4.3c0.1,0.3,0.3,0.6,1,0.7h2.9c0.6-0.1,0.8-0.5,0.7-1v-3.8c0.1-0.5-0.2-1.1-1-1.4c-1.6-0.3-4.7-0.5-7.4-0.5
	c-6.5,0.1-7.8,0.9-8.6,1.7c-1.1,0.8-2.6,1.1-2.6,7.7c0.1,6.6,0.4,7.2,1.4,8.4c1.2,1.2,6,1.8,8.6,1.7c1.9,0.1,5.4-0.1,8.9-1.2
	c0.5-0.2,0.8-0.4,0.7-1v-2.9c0-1.7,0.9-2.7,2.2-2.6c0.5-0.1,0.8-0.4,0.7-0.7v-0.5c0-0.3-0.1-0.7-0.7-0.7H40.3
	c-0.4,0-0.6,0.4-0.5,0.7v0.5c-0.1,0.3,0.2,0.6,0.7,0.7C42.2,20.6,42.9,21.6,43,23.3z"/>
<path id="P" d="M18.2,27.8c0.2,0.1,0.4-0.1,0.5-0.2v-0.7c0-0.4-0.3-0.5-0.5-0.5c-3.2-0.1-4.2-1.1-4.3-2.9v-2.9h6.2
	c2.6-0.1,6.7-0.3,6.7-6.2c-0.1-4.5-2.8-5.1-6-5H5.5c-0.4,0-0.7,0.2-0.7,0.5v0.7c0,0.4,0.4,0.5,0.7,0.5c2.2,0,3.2,1.1,3.1,2.9v9.6
	c0.1,1.8-1.1,2.8-3.4,2.9c-0.2,0-0.5,0.1-0.5,0.5v0.7c0,0.2,0.2,0.4,0.5,0.2H18.2z M13.9,11.3h4.3c2.3,0,2.7,1.7,2.6,3.4
	c0.1,1.8-0.2,3.9-2.6,3.8h-4.3V11.3z"/>
</svg>
