<?xml version="1.0" encoding="utf-8"?>
<!-- Generator: Adobe Illustrator 25.2.0, SVG Export Plug-In . SVG Version: 6.00 Build 0)  -->
<svg version="1.1" id="VARG"
    xmlns="http://www.w3.org/2000/svg"
    xmlns:xlink="http://www.w3.org/1999/xlink" x="0px" y="0px" viewBox="0 0 107 93" style="enable-background:new 0 0 107 93;" xml:space="preserve">
    <path id="Border" class="st0" d="M106.8,0.2H0.5v92h106.3V0.2z M102.2,87.5H5.1V4.8h97.1V87.5z"/>
    <path id="G" class="st0" d="M51.3,79.7c3.6,0,6.7-0.2,10.6-0.6c7-1,14.8-3.2,23.4-3.2l0.2-16c0-1.7-0.6-5.3,8.1-5.3v-6.9
	c-5.3,0.5-11.4,0.3-17.5,0.3c-6.6,0-12.9,0.2-23-0.1v6.6c14.1-0.1,12.9,0.8,13,5.5c0.2,7.8,0.3,8.5-0.6,9.2
	c-2.2,2.3-8.4,3.2-11.7,3.2c-16.9,0-20.2-13.4-20.2-24.2c0-12.9,1.8-27.1,21.4-27.1c14.1,0,15.3,2.7,17.6,13.4l11.1,0.4l-0.5-18.3
	C72.2,15,65,13.7,55.1,13.7c-30.6,0-42.3,10.1-42.3,34.1C12.8,68.6,24.6,79.7,51.3,79.7z"/>
</svg>
