<?xml version="1.0" encoding="utf-8"?>
<!-- Generator: Adobe Illustrator 25.2.0, SVG Export Plug-In . SVG Version: 6.00 Build 0)  -->
<svg version="1.1" id="VARG" xmlns="http://www.w3.org/2000/svg" xmlns:xlink="http://www.w3.org/1999/xlink" x="0px" y="0px"
	 viewBox="0 0 54.5 37.4" style="enable-background:new 0 0 54.5 37.4;" xml:space="preserve">
<path id="Border" d="M0,0v37.4h54.5V0H0z M52.6,35.5H1.9V1.9h50.6V35.5z"/>
<path id="G" d="M42.2,23.3c-0.1,0.9,0.3,3.2-3.8,3.4c-4.8-0.1-4.5-3.4-4.6-4.6c0-1.1,0-3.6,0-6.5c0.2-2.9,0.3-5,4.8-5
	c4.7,0.1,4.2,3.4,4.3,4.3c0.2,0.3,0.3,0.6,1.2,0.7h2.6c0.6-0.1,0.9-0.5,1-1v-3.8c-0.1-0.5-0.4-1.1-1.2-1.4c-1.5-0.3-4.7-0.5-7.4-0.5
	c-6.4,0.1-7.7,0.9-8.6,1.7c-1,0.8-2.5,1.1-2.4,7.7c-0.1,6.6,0.2,7.2,1.2,8.4c1.2,1.2,6,1.8,8.6,1.7c2,0.1,5.5-0.1,9.1-1.2
	c0.3-0.2,0.6-0.4,0.5-1v-2.6v-0.2c0.1-1.7,1-2.7,2.2-2.6c0.5-0.1,0.8-0.4,0.7-0.7v-0.5c0.1-0.3-0.1-0.7-0.5-0.7H39.8
	c-0.6,0-0.7,0.4-0.7,0.7v0.5c0,0.3,0.3,0.6,0.7,0.7C41.5,20.6,42.2,21.6,42.2,23.3z"/>
<path id="P" d="M17.5,27.8c0.3,0.1,0.5-0.1,0.5-0.2v-0.7c0-0.4-0.3-0.5-0.5-0.5c-3.2-0.1-4.1-1.1-4.1-2.9v-2.9h6.2
	c2.4-0.1,6.5-0.3,6.5-6.2c0-4.5-2.7-5.1-6-5H4.8c-0.3,0-0.7,0.2-0.7,0.5v0.7c0.1,0.4,0.5,0.5,0.7,0.5c2.2,0,3.3,1.1,3.4,2.9v9.6
	c-0.1,1.8-1.2,2.8-3.4,2.9c-0.4,0-0.7,0.1-0.7,0.5v0.7c0.1,0.2,0.3,0.4,0.5,0.2H17.5z M13.4,11.3h4.1c2.4,0,2.8,1.7,2.6,3.4
	c0.1,1.8-0.1,3.9-2.4,3.8h-4.3C13.4,18.5,13.4,11.3,13.4,11.3z"/>
</svg>
