<?xml version="1.0" encoding="utf-8"?>
<!-- Generator: Adobe Illustrator 25.2.0, SVG Export Plug-In . SVG Version: 6.00 Build 0)  -->
<svg version="1.1" id="Layer_1" xmlns="http://www.w3.org/2000/svg" xmlns:xlink="http://www.w3.org/1999/xlink" x="0px" y="0px"
	 viewBox="0 0 72 72" style="enable-background:new 0 0 72 72;" xml:space="preserve">
<style type="text/css">
	.st0{fill:#FFFFFF;}
</style>
<g>
	<path class="st0" d="M34.1,14.2v2H23.7v9.5h-7.3v-9.5H6.1v-2C6.1,14.2,34.1,14.2,34.1,14.2z"/>
	<path class="st0" d="M58.5,14.2H66L54.2,25.8h-6.8L35.7,14.2h7.7l7.5,8.7L58.5,14.2z"/>
	<path class="st0" d="M27.5,29h10.2v28.8h-6.6V38.3c0-0.6,0-1.3,0-2.4c0-1,0-1.8,0-2.3l-6.4,24.2h-6.9l-6.4-24.2c0,0.5,0,1.3,0,2.3
		c0,1,0,1.8,0,2.4v19.5H4.9V29h10.3l6.2,22.6L27.5,29z"/>
	<path class="st0" d="M51.5,29h8l12,28.8h-7.7l-2.2-5.9H49.1l-2.3,5.9h-7.4L51.5,29z M51,46.9h8.7l-4.3-11.3L51,46.9z"/>
</g>
</svg>
