<?xml version="1.0" encoding="utf-8"?>
<!-- Generator: Adobe Illustrator 25.2.0, SVG Export Plug-In . SVG Version: 6.00 Build 0)  -->
<svg version="1.1" id="Layer_1" xmlns="http://www.w3.org/2000/svg" xmlns:xlink="http://www.w3.org/1999/xlink" x="0px" y="0px"
	 viewBox="0 0 72 72" style="enable-background:new 0 0 72 72;" xml:space="preserve">
<style type="text/css">
	.st0{fill:#FFFFFF;}
</style>
<g>
	<path class="st0" d="M34.1,14.2v2H23.7v9.5h-7.3v-9.5H6.1v-2C6.1,14.2,34.1,14.2,34.1,14.2z"/>
	<path class="st0" d="M58.5,14.2H66L54.2,25.8h-6.8L35.7,14.2h7.7l7.5,8.7L58.5,14.2z"/>
	<path class="st0" d="M29.7,29h8.5l-12,18v10.8h-7.5V47L6.2,29h8.9l7.5,12.5L29.7,29z"/>
	<path class="st0" d="M65.1,34.2c-1,0.8-2.5,2.3-4.4,4.4c-1.9,2.1-3.4,4.3-4.7,6.5c-1,1.8-1.9,3.9-2.7,6.4s-1.2,4.6-1.2,6.2H45
		c0.2-5.1,2.3-10.4,6.3-15.8c2.6-3.4,4.7-5.8,6.4-7.1H40l0.1-5h25C65.1,29.8,65.1,34.2,65.1,34.2z"/>
</g>
</svg>
