<?xml version="1.0" encoding="utf-8"?>
<!-- Generator: Adobe Illustrator 25.2.0, SVG Export Plug-In . SVG Version: 6.00 Build 0)  -->
<svg version="1.1" id="Layer_1" xmlns="http://www.w3.org/2000/svg" xmlns:xlink="http://www.w3.org/1999/xlink" x="0px" y="0px"
	 viewBox="0 0 72 72" style="enable-background:new 0 0 72 72;" xml:space="preserve">
<style type="text/css">
	.st0{fill:#FFFFFF;}
</style>
<g>
	<path class="st0" d="M34.1,14.2v2H23.7v9.5h-7.3v-9.5H6.1v-2C6.1,14.2,34.1,14.2,34.1,14.2z"/>
	<path class="st0" d="M58.5,14.2H66L54.2,25.8h-6.8L35.7,14.2h7.7l7.5,8.7L58.5,14.2z"/>
	<path class="st0" d="M44.5,38c-0.6-2-2-3.3-4.2-4.1c-1.2-0.4-2.6-0.6-4.1-0.6c-2.9,0-5.3,0.9-7.1,2.6c-1.9,1.7-2.8,4.4-2.8,7.9
		c0,3.5,1,6,3,7.5c2,1.5,4.3,2.2,6.9,2.2c2.5,0,4.6-0.6,6.2-1.7s2.6-2.7,3-4.6h-8.3v-4.8h15v15.4h-5l-0.8-3.6
		c-1.4,1.4-2.8,2.3-3.9,2.9c-2,1-4.4,1.5-7.3,1.5c-4.8,0-8.7-1.3-11.7-4c-3.2-2.7-4.8-6.3-4.8-10.9c0-4.7,1.6-8.4,4.8-11.2
		c3.2-2.8,7.4-4.2,12.7-4.2c4.6,0,8.2,0.9,11,2.8c2.8,1.9,4.4,4.2,4.8,6.9L44.5,38L44.5,38z"/>
</g>
</svg>
