<?xml version="1.0" encoding="utf-8"?>
<!-- Generator: Adobe Illustrator 25.2.0, SVG Export Plug-In . SVG Version: 6.00 Build 0)  -->
<svg version="1.1" id="Layer_1" xmlns="http://www.w3.org/2000/svg" xmlns:xlink="http://www.w3.org/1999/xlink" x="0px" y="0px"
	 viewBox="0 0 72 72" style="enable-background:new 0 0 72 72;" xml:space="preserve">
<style type="text/css">
	.st0{fill:#FFFFFF;}
</style>
<g>
	<path class="st0" d="M34.1,14.2v2H23.7v9.5h-7.3v-9.5H6.1v-2C6.1,14.2,34.1,14.2,34.1,14.2z"/>
	<path class="st0" d="M58.5,14.2H66L54.2,25.8h-6.8L35.7,14.2h7.7l7.5,8.7L58.5,14.2z"/>
	<path class="st0" d="M9.8,38.2v-3.8c2.6-0.1,4.5-0.2,5.5-0.4c1.7-0.2,3-0.7,4.1-1.5c0.7-0.5,1.3-1.2,1.6-2c0.2-0.5,0.3-0.9,0.3-1.1
		h7v28.3h-8.6V38.2H9.8z"/>
	<path class="st0" d="M64.3,51.7h-4.8v6.1h-8.2v-6.1H34.5v-4.9l15.6-17.2h9.4v17.7h4.8V51.7z M51.4,47.3V35.1L40.8,47.3H51.4z"/>
</g>
</svg>
