<?xml version="1.0" encoding="utf-8"?>
<!-- Generator: Adobe Illustrator 25.2.0, SVG Export Plug-In . SVG Version: 6.00 Build 0)  -->
<svg version="1.1" id="Layer_1" xmlns="http://www.w3.org/2000/svg" xmlns:xlink="http://www.w3.org/1999/xlink" x="0px" y="0px"
	 viewBox="0 0 72 72" style="enable-background:new 0 0 72 72;" xml:space="preserve">
<style type="text/css">
	.st0{fill:#FFFFFF;}
</style>
<g>
	<path class="st0" d="M34.1,14.2v2H23.7v9.5h-7.3v-9.5H6.1v-2C6.1,14.2,34.1,14.2,34.1,14.2z"/>
	<path class="st0" d="M58.5,14.2H66L54.2,25.8h-6.8L35.7,14.2h7.7l7.5,8.7L58.5,14.2z"/>
	<path class="st0" d="M29.5,45.3c-2,1.4-4.8,2.1-8.5,2.1h-7v10.4h-7V29h14.5c3.3,0,6,0.7,8,2.2c2,1.5,3,3.8,3,6.9
		C32.4,41.5,31.5,43.9,29.5,45.3z M24.1,34.9c-0.9-0.6-2.1-1-3.8-1h-6.4v8.5h6.4c1.6,0,2.9-0.3,3.8-1c0.9-0.7,1.3-1.8,1.3-3.3
		C25.4,36.6,25,35.6,24.1,34.9z"/>
	<path class="st0" d="M58.5,38c-0.5-2-1.8-3.3-3.9-4.1c-1.2-0.4-2.5-0.6-3.9-0.6c-2.7,0-5,0.9-6.7,2.6c-1.8,1.7-2.6,4.4-2.6,7.9
		c0,3.5,0.9,6,2.8,7.5c1.9,1.5,4.1,2.2,6.5,2.2c2.4,0,4.3-0.6,5.8-1.7s2.4-2.7,2.8-4.6h-7.8v-4.8h14.1v15.4h-4.7l-0.7-3.6
		c-1.4,1.4-2.6,2.3-3.7,2.9c-1.9,1-4.2,1.5-6.9,1.5c-4.5,0-8.2-1.3-11-4c-3-2.7-4.5-6.3-4.5-10.9c0-4.7,1.5-8.4,4.5-11.2
		c3-2.8,7-4.2,12-4.2c4.3,0,7.8,0.9,10.4,2.8c2.6,1.9,4.1,4.2,4.5,6.9L58.5,38L58.5,38z"/>
</g>
</svg>
