<svg xmlns="http://www.w3.org/2000/svg" viewBox="0 0 200 45">
    <g fill="#fff" transform="translate(0, 37.5)">
        <path d="M36.60-33.50L36.60-33.50Q38.70-33.50 40.10-32.15L40.10-32.15L40.10-32.15Q41.50-30.80 41.50-28.50L41.50-28.50L41.50-28.50Q41.50-25.90 39.95-24.30L39.95-24.30L39.95-24.30Q38.40-22.70 36.25-22.70L36.25-22.70L36.25-22.70Q34.85-22.70 33.85-23.20L33.85-23.20L33.85-23.20Q32.85-23.70 31.95-24.80L31.95-24.80L27.65-21.20L32.50-6.85L32.50-6.85Q32.95-5.60 33.48-4.85L33.48-4.85L33.48-4.85Q34-4.10 34.75-3.35L34.75-3.35L34.75-3.35Q35.30-2.80 35.52-2.48L35.52-2.48L35.52-2.48Q35.75-2.15 35.75-1.70L35.75-1.70L35.75-1.70Q35.75-0.90 35.02-0.45L35.02-0.45L35.02-0.45Q34.30 0 32.50 0L32.50 0L25.95 0L25.95 0Q23.50 0 22.33-1.07L22.33-1.07L22.33-1.07Q21.15-2.15 20.40-4.65L20.40-4.65L17.90-13.05L16.45-11.85L14.80-5.90L14.80-5.90Q14.60-5.25 14.60-4.65L14.60-4.65L14.60-4.65Q14.60-4.05 14.78-3.65L14.78-3.65L14.78-3.65Q14.95-3.25 15.30-2.80L15.30-2.80L15.30-2.80Q15.75-2.15 15.75-1.75L15.75-1.75L15.75-1.75Q15.75-1.65 15.65-1.25L15.65-1.25L15.65-1.25Q15.45-0.55 14.75-0.28L14.75-0.28L14.75-0.28Q14.05 0 12.65 0L12.65 0L0.90 0L0.90 0Q-0.15 0-0.73-0.35L-0.73-0.35L-0.73-0.35Q-1.30-0.70-1.30-1.30L-1.30-1.30L-1.30-1.30Q-1.30-1.60-1.15-1.95L-1.15-1.95L-1.15-1.95Q-0.95-2.50-0.50-2.80L-0.50-2.80L-0.50-2.80Q-0.05-3.10 0.05-3.15L0.05-3.15L0.05-3.15Q0.85-3.65 1.35-4.17L1.35-4.17L1.35-4.17Q1.85-4.70 2.20-5.90L2.20-5.90L8.30-27.45L8.30-27.45Q8.50-28.10 8.50-28.70L8.50-28.70L8.50-28.70Q8.50-29.25 8.33-29.63L8.33-29.63L8.33-29.63Q8.15-30 7.85-30.50L7.85-30.50L7.85-30.50Q7.40-31.15 7.40-31.55L7.40-31.55L7.40-31.55Q7.40-31.70 7.50-32.10L7.50-32.10L7.50-32.10Q7.70-32.75 8.38-33.02L8.38-33.02L8.38-33.02Q9.05-33.30 10.45-33.30L10.45-33.30L22.20-33.30L22.20-33.30Q23.25-33.30 23.83-32.98L23.83-32.98L23.83-32.98Q24.40-32.65 24.40-32.05L24.40-32.05L24.40-32.05Q24.40-31.80 24.25-31.40L24.25-31.40L24.25-31.40Q24.10-31.05 23.83-30.78L23.83-30.78L23.83-30.78Q23.55-30.50 23.33-30.38L23.33-30.38L23.33-30.38Q23.10-30.25 23-30.15L23-30.15L23-30.15Q22.20-29.70 21.70-29.15L21.70-29.15L21.70-29.15Q21.20-28.60 20.85-27.45L20.85-27.45L18.75-20L32-31.45L32-31.45Q33.30-32.55 34.35-33.02L34.35-33.02L34.35-33.02Q35.40-33.50 36.60-33.50L36.60-33.50ZM56.30-26.70L56.30-26.70Q62.65-26.70 65.50-24.68L65.50-24.68L65.50-24.68Q68.35-22.65 68.35-19.50L68.35-19.50L68.35-19.50Q68.35-18.55 68.15-17.75L68.15-17.75L68.15-17.75Q67.40-14.45 63.98-13.03L63.98-13.03L63.98-13.03Q60.55-11.60 55.90-11.60L55.90-11.60L55.90-11.60Q53.55-11.60 51.50-11.90L51.50-11.90L51.50-11.90Q51.45-9.30 52.90-8.25L52.90-8.25L52.90-8.25Q54.35-7.20 56.95-7.20L56.95-7.20L56.95-7.20Q58.15-7.20 59.25-7.48L59.25-7.48L59.25-7.48Q60.35-7.75 62.05-8.30L62.05-8.30L62.05-8.30Q63.45-8.80 63.95-8.80L63.95-8.80L63.95-8.80Q64.50-8.80 64.50-8.15L64.50-8.15L64.50-8.15Q64.55-6.40 63.20-4.48L63.20-4.48L63.20-4.48Q61.85-2.55 59.20-1.20L59.20-1.20L59.20-1.20Q56.55 0.15 52.80 0.15L52.80 0.15L52.80 0.15Q47.25 0.15 43.70-2.65L43.70-2.65L43.70-2.65Q40.15-5.45 40.15-10.80L40.15-10.80L40.15-10.80Q40.15-12.30 40.55-14.30L40.55-14.30L40.55-14.30Q41.80-20.45 46.03-23.58L46.03-23.58L46.03-23.58Q50.25-26.70 56.30-26.70L56.30-26.70ZM51.85-14.90L51.85-14.90Q52.05-14.85 52.40-14.85L52.40-14.85L52.40-14.85Q54.50-14.85 55.60-16.80L55.60-16.80L55.60-16.80Q56.70-18.75 56.65-21.15L56.65-21.15L56.65-21.15Q56.60-22.55 55.85-22.55L55.85-22.55L55.85-22.55Q55.30-22.55 54.55-21.68L54.55-21.68L54.55-21.68Q53.80-20.80 53.08-19.05L53.08-19.05L53.08-19.05Q52.35-17.30 51.85-14.90L51.85-14.90ZM83.80-26.90L83.80-26.90Q87.95-26.90 90.97-26.15L90.97-26.15L90.97-26.15Q94-25.40 95.63-24.05L95.63-24.05L95.63-24.05Q97.25-22.70 97.25-21L97.25-21L97.25-21Q97.25-19.25 95.88-18.15L95.88-18.15L95.88-18.15Q94.50-17.05 92.05-17.05L92.05-17.05L92.05-17.05Q89.55-17.05 87.82-18.30L87.82-18.30L87.82-18.30Q86.10-19.55 86.10-21.45L86.10-21.45L86.10-21.45Q86.10-22.10 86.30-22.70L86.30-22.70L86.30-22.70Q85.40-22.95 84.70-22.95L84.70-22.95L84.70-22.95Q83.45-22.95 82.63-22.35L82.63-22.35L82.63-22.35Q81.80-21.75 81.85-20.65L81.85-20.65L81.85-20.65Q81.85-19.35 83.15-18.45L83.15-18.45L83.15-18.45Q84.45-17.55 87.35-16.20L87.35-16.20L87.35-16.20Q89.85-15.10 91.47-14.18L91.47-14.18L91.47-14.18Q93.10-13.25 94.22-11.85L94.22-11.85L94.22-11.85Q95.35-10.45 95.35-8.55L95.35-8.55L95.35-8.55Q95.35-8.15 95.15-7.05L95.15-7.05L95.15-7.05Q94.35-3.70 90.70-1.75L90.70-1.75L90.70-1.75Q87.05 0.20 81.10 0.20L81.10 0.20L81.10 0.20Q74.40 0.20 70.47-1.60L70.47-1.60L70.47-1.60Q66.55-3.40 66.55-6.55L66.55-6.55L66.55-6.55Q66.55-8.70 67.85-9.80L67.85-9.80L67.85-9.80Q69.15-10.90 71.30-10.90L71.30-10.90L71.30-10.90Q73.80-10.90 75.57-9.35L75.57-9.35L75.57-9.35Q77.35-7.80 77.35-5.40L77.35-5.40L77.35-5.40Q77.35-4.75 77.20-4.05L77.20-4.05L77.20-4.05Q78.40-3.75 79.50-3.75L79.50-3.75L79.50-3.75Q80.80-3.75 81.65-4.45L81.65-4.45L81.65-4.45Q82.50-5.15 82.50-6.40L82.50-6.40L82.50-6.40Q82.45-7.55 81.35-8.38L81.35-8.38L81.35-8.38Q80.25-9.20 77.85-10.35L77.85-10.35L77.85-10.35Q75.60-11.40 74.15-12.33L74.15-12.33L74.15-12.33Q72.70-13.25 71.67-14.65L71.67-14.65L71.67-14.65Q70.65-16.05 70.65-17.95L70.65-17.95L70.65-17.95Q70.65-22.05 74.07-24.48L74.07-24.48L74.07-24.48Q77.50-26.90 83.80-26.90L83.80-26.90ZM119.35-25.80L119.35-25.80Q120.30-25.80 120.83-25.40L120.83-25.40L120.83-25.40Q121.35-25 121.35-24.30L121.35-24.30L121.35-24.30Q121.35-24.10 121.25-23.60L121.25-23.60L121.25-23.60Q120.60-21.40 118.25-21.40L118.25-21.40L115.35-21.40L111.60-9.05L111.60-9.05Q111.35-8.30 111.35-7.50L111.35-7.50L111.35-7.50Q111.35-6.60 111.85-6.25L111.85-6.25L111.85-6.25Q112.35-5.90 113.25-5.90L113.25-5.90L113.25-5.90Q114.05-5.90 115.25-6.10L115.25-6.10L115.25-6.10Q115.85-6.25 116.30-6.25L116.30-6.25L116.30-6.25Q116.65-6.25 116.83-6.03L116.83-6.03L116.83-6.03Q117-5.80 117-5.45L117-5.45L117-5.45Q117.05-4.45 115.53-3.03L115.53-3.03L115.53-3.03Q114-1.60 111.40-0.58L111.40-0.58L111.40-0.58Q108.80 0.45 105.65 0.45L105.65 0.45L105.65 0.45Q102.25 0.45 100.20-1.10L100.20-1.10L100.20-1.10Q98.15-2.65 98.15-5.35L98.15-5.35L98.15-5.35Q98.15-6.60 98.55-7.75L98.55-7.75L101.75-17.65L101.75-17.65Q102-18.50 102-19L102-19L102-19Q102-20 101.53-20.70L101.53-20.70L101.53-20.70Q101.05-21.40 100.20-22.15L100.20-22.15L100.20-22.15Q99.45-22.85 99.15-23.33L99.15-23.33L99.15-23.33Q98.85-23.80 99-24.45L99-24.45L99-24.45Q99.20-25.10 99.85-25.45L99.85-25.45L99.85-25.45Q100.50-25.80 101.90-25.80L101.90-25.80L104.70-25.80L107.85-28.95L107.85-28.95Q109.50-30.60 110.88-31.25L110.88-31.25L110.88-31.25Q112.25-31.90 114.45-31.90L114.45-31.90L114.45-31.90Q117.60-31.90 117.60-29.50L117.60-29.50L117.60-29.50Q117.60-28.75 117.40-28.10L117.40-28.10L116.70-25.80L119.35-25.80ZM143.05-26.45L143.05-26.45Q145.85-26.45 147.53-24.75L147.53-24.75L147.53-24.75Q149.20-23.05 149.20-20.55L149.20-20.55L149.20-20.55Q149.20-19.60 149-18.80L149-18.80L149-18.80Q148.50-16.75 147.10-15.65L147.10-15.65L147.10-15.65Q145.70-14.55 143.75-14.55L143.75-14.55L143.75-14.55Q141.85-14.55 140.88-15.45L140.88-15.45L140.88-15.45Q139.90-16.35 139.15-17.85L139.15-17.85L139.15-17.85Q138.75-18.70 138.40-19.10L138.40-19.10L138.40-19.10Q138.05-19.50 137.60-19.50L137.60-19.50L137.60-19.50Q137.10-19.50 136.72-19.10L136.72-19.10L136.72-19.10Q136.35-18.70 136.05-17.70L136.05-17.70L132.20-5.20L132.20-5.20Q132.10-4.95 132.10-4.45L132.10-4.45L132.10-4.45Q132.10-3.80 132.47-3.38L132.47-3.38L132.47-3.38Q132.85-2.95 133.50-2.55L133.50-2.55L133.50-2.55Q134.10-2.15 134.30-1.90L134.30-1.90L134.30-1.90Q134.50-1.65 134.45-1.25L134.45-1.25L134.45-1.25Q134.35-0.60 133.72-0.30L133.72-0.30L133.72-0.30Q133.10 0 131.60 0L131.60 0L118.80 0L118.80 0Q117.50 0 116.92-0.43L116.92-0.43L116.92-0.43Q116.35-0.85 116.50-1.55L116.50-1.55L116.50-1.55Q116.70-2.15 117.55-2.60L117.55-2.60L117.55-2.60Q118.30-3 118.80-3.55L118.80-3.55L118.80-3.55Q119.30-4.10 119.65-5.30L119.65-5.30L124.10-19.75L124.10-19.75Q124.20-20 124.20-20.45L124.20-20.45L124.20-20.45Q124.20-21 123.97-21.30L123.97-21.30L123.97-21.30Q123.75-21.60 123.25-22.05L123.25-22.05L123.25-22.05Q122.75-22.45 122.55-22.75L122.55-22.75L122.55-22.75Q122.35-23.05 122.50-23.55L122.50-23.55L122.50-23.55Q122.80-24.70 125.65-25.58L125.65-25.58L125.65-25.58Q128.50-26.45 131.60-26.45L131.60-26.45L131.60-26.45Q133.65-26.45 135-25.53L135-25.53L135-25.53Q136.35-24.60 136.75-22.90L136.75-22.90L136.75-22.90Q139.15-26.45 143.05-26.45L143.05-26.45ZM164.40-26.70L164.40-26.70Q170.75-26.70 173.60-24.68L173.60-24.68L173.60-24.68Q176.45-22.65 176.45-19.50L176.45-19.50L176.45-19.50Q176.45-18.55 176.25-17.75L176.25-17.75L176.25-17.75Q175.50-14.45 172.07-13.03L172.07-13.03L172.07-13.03Q168.65-11.60 164-11.60L164-11.60L164-11.60Q161.65-11.60 159.60-11.90L159.60-11.90L159.60-11.90Q159.55-9.30 161-8.25L161-8.25L161-8.25Q162.45-7.20 165.05-7.20L165.05-7.20L165.05-7.20Q166.25-7.20 167.35-7.48L167.35-7.48L167.35-7.48Q168.45-7.75 170.15-8.30L170.15-8.30L170.15-8.30Q171.55-8.80 172.05-8.80L172.05-8.80L172.05-8.80Q172.60-8.80 172.60-8.15L172.60-8.15L172.60-8.15Q172.65-6.40 171.30-4.48L171.30-4.48L171.30-4.48Q169.95-2.55 167.30-1.20L167.30-1.20L167.30-1.20Q164.65 0.15 160.90 0.15L160.90 0.15L160.90 0.15Q155.35 0.15 151.80-2.65L151.80-2.65L151.80-2.65Q148.25-5.45 148.25-10.80L148.25-10.80L148.25-10.80Q148.25-12.30 148.65-14.30L148.65-14.30L148.65-14.30Q149.90-20.45 154.13-23.58L154.13-23.58L154.13-23.58Q158.35-26.70 164.40-26.70L164.40-26.70ZM159.95-14.90L159.95-14.90Q160.15-14.85 160.50-14.85L160.50-14.85L160.50-14.85Q162.60-14.85 163.70-16.80L163.70-16.80L163.70-16.80Q164.80-18.75 164.75-21.15L164.75-21.15L164.75-21.15Q164.70-22.55 163.95-22.55L163.95-22.55L163.95-22.55Q163.40-22.55 162.65-21.68L162.65-21.68L162.65-21.68Q161.90-20.80 161.17-19.05L161.17-19.05L161.17-19.05Q160.45-17.30 159.95-14.90L159.95-14.90ZM191.40-36.95L191.40-36.95Q194.30-36.95 195.67-35.85L195.67-35.85L195.67-35.85Q197.05-34.75 197.05-32.85L197.05-32.85L197.05-32.85Q197.05-31.75 196.70-30.70L196.70-30.70L188.85-5.20L188.85-5.20Q188.70-4.60 188.70-4.15L188.70-4.15L188.70-4.15Q188.70-3.50 188.95-3.13L188.95-3.13L188.95-3.13Q189.20-2.75 189.65-2.40L189.65-2.40L189.65-2.40Q190-2.05 190.15-1.83L190.15-1.83L190.15-1.83Q190.30-1.60 190.20-1.25L190.20-1.25L190.20-1.25Q189.95-0.60 189.20-0.30L189.20-0.30L189.20-0.30Q188.45 0 186.90 0L186.90 0L175.50 0L175.50 0Q174.20 0 173.60-0.43L173.60-0.43L173.60-0.43Q173-0.85 173.20-1.55L173.20-1.55L173.20-1.55Q173.40-2.15 174.25-2.60L174.25-2.60L174.25-2.60Q175-3 175.50-3.55L175.50-3.55L175.50-3.55Q176-4.10 176.35-5.30L176.35-5.30L183.95-30.25L183.95-30.25Q184.10-30.70 184.10-31L184.10-31L184.10-31Q184.10-31.55 183.82-31.90L183.82-31.90L183.82-31.90Q183.55-32.25 183.10-32.60L183.10-32.60L183.10-32.60Q182.60-33 182.38-33.30L182.38-33.30L182.38-33.30Q182.15-33.60 182.30-34.10L182.30-34.10L182.30-34.10Q182.60-35.25 185.45-36.10L185.45-36.10L185.45-36.10Q188.30-36.95 191.40-36.95L191.40-36.95Z"></path>
    </g>
</svg>
